<?xml version="1.0" encoding="utf-8"?>
<!-- Generator: Adobe Illustrator 25.2.1, SVG Export Plug-In . SVG Version: 6.00 Build 0)  -->
<svg version="1.1" id="Capa_1" xmlns="http://www.w3.org/2000/svg" xmlns:xlink="http://www.w3.org/1999/xlink" x="0px" y="0px"
	 viewBox="0 0 205 109" style="enable-background:new 0 0 205 109;" xml:space="preserve">
<style type="text/css">
	.st0{fill:#AEADB3;}
	.st1{fill:#5B5B5F;}
	.st2{fill-rule:evenodd;clip-rule:evenodd;fill:#005784;}
	.st3{clip-path:url(#SVGID_1_);fill-rule:evenodd;clip-rule:evenodd;fill:url(#SVGID_2_);}
	.st4{clip-path:url(#SVGID_1_);fill-rule:evenodd;clip-rule:evenodd;fill:url(#SVGID_3_);}
	.st5{fill:#727277;}
</style>
<g>
	<path class="st0" d="M7.8,57v15.5c0,4.5,2.5,7.9,7.2,7.9c4.5,0,7.6-3.8,7.6-8.3V57h7.3v29.7h-6.6l-0.5-4c-3.1,3-5.9,4.4-10,4.4
		c-7.1,0-12.3-5.4-12.3-14.6V57H7.8z"/>
	<path class="st0" d="M58.6,44.6V61c1.7-3.1,6.6-4.7,9.7-4.7c8.7,0,15.1,5.3,15.1,15.5c0,9.7-6.5,15.5-15.3,15.5
		c-3.6,0-7.3-1.2-9.6-4.8l-0.5,4.1h-6.9V44.6H58.6z M59.1,71.8c0,5.4,4,8.7,8.6,8.7c4.7,0,8.4-3.5,8.4-8.7c0-5.3-3.7-8.7-8.4-8.7
		C63,63.1,59.1,66.6,59.1,71.8z"/>
	<path class="st1" d="M92.7,74.4c0.5,3.7,3.7,6.3,8.8,6.3c2.7,0,6.3-1,7.9-2.8l4.7,4.6c-3.1,3.2-8.2,4.8-12.7,4.8
		c-10.2,0-16.3-6.3-16.3-15.8c0-9,6.1-15.5,15.8-15.5c9.9,0,16.1,6.1,15,18.3H92.7z M108.8,68.4c-0.5-3.9-3.5-5.8-7.7-5.8
		c-4,0-7.2,1.9-8.3,5.8H108.8z"/>
	<path class="st0" d="M48.9,56.2c-0.2,0-0.4,0-0.6,0c-3,0-6.1,0.5-8.4,4.2L39.4,57h-6.8v29.7h7.3V71c0-5.5,3.6-7.5,7.4-7.5
		c0.6,0,1.1,0,1.5,0.1V56.2z"/>
	<g>
		<path class="st2" d="M118.4,49.5c3.9-1.1,7.9-2,11.3-4.6c2.8-2.3,6.3-3.3,9.9-3.8c5.1-0.7,9.9,0.2,14.4,2.7
			c0.5,0.3,1.1,0.8,1.3-0.3c0.4-2.9,1.3-5.7,2.3-8.4c0.2-0.6,0.4-1.1,0.7-1.6c3.1,4.9,6.8,7.9,4.3,4c-2.2-3.6-2.1-7.4-1.2-10.6
			c2.5-4.7,5.6-8.9,9.2-12.6c1.8,3,4.1,5,2.7,2.7c-0.9-1.5-1.1-3-1-4.4c4.9-4.7,10.7-8.6,17.4-11.7c1-0.4,1.1-0.1,1.2,0.7
			c0.6,3.4,0.8,6.9,0.8,10.4c0,3.4-0.5,6.8-1.1,10.2c-3,10.8-10.2,23.2-26.4,31.8c-0.2,0.1-0.3,0.4-0.2,0.6c0.1,0.2,0.3,0.3,0.5,0.2
			c0,0,0.1,0,0.1,0c15.3-8.2,22.7-19.8,26.1-30.1c0.3-0.5,0.5-0.9,0.7-1.4c0.4-1.3,1.3-2,2.6-2.2c3-0.7,6-1.4,9.1-1.7
			c1.7-0.1,1.7-0.1,1.1,1.5c-1.1,2.9-2.4,5.6-3.9,8.2c-1.4,1.2-3.2,2.1-5.5,1.9c-2.7-0.3,0.1,1,3.6,1.2c-3.2,5.1-7.1,9.6-11.8,13.5
			c-1.7,0.5-3.6,0.6-5.5-0.1c-3.1-1.1-0.9,0.8,2.8,2.2c-1.8,1.3-3.6,2.6-5.5,3.7c-3.5,2.1-6.9,4.3-9.9,7.1c-0.8,0.7-1.6,1.3-2.5,1.9
			c1.5-0.4,2.8-1,4.1-1.7c0.9-0.5,1.4-0.4,2,0.6c2,3,3.5,6.1,4.5,9.4c-4.1-1.7-7.7-1.9-4.4-0.5c3.1,1.3,4.8,3.9,5.7,6.4
			c0,0.3,0.1,0.6,0.1,0.8c0.6,5.7,0.2,11-1.4,15.9c-2.4-2.8-5.4-4.4-3.5-2.4c2,2,2.1,4.7,1.8,6.8c-2,4.4-5,8.4-8.9,12.1
			c-1.5,1.4-1.6,1.4-2.5-0.5c-0.3-0.5-0.5-1-0.7-1.5c-4.1-8.7-4.8-17.7-2-26.9c0.3-0.8,0.7-1.1,1.5-1.1c1,0,2,0.2,3-0.2
			c-0.3-0.4-0.8-0.4-1.1-0.5c-5.1-1.1-10-2.8-14.4-5.8c-4.3-2.9-8-6.3-10.6-10.8c-1.8-3-4.1-5.7-7.4-7.3c-3.1-1.5-6.4-1.8-9.7-2.2
			c-3.3-0.4-6.5-0.1-10.2-0.1C114.4,50.3,116.5,50.1,118.4,49.5z"/>
		<g>
			<defs>
				<path id="SVGID_5_" d="M118.4,49.5c3.9-1.1,7.9-2,11.3-4.6c2.8-2.3,6.3-3.3,9.9-3.8c5.1-0.7,9.9,0.2,14.4,2.7
					c0.5,0.3,1.1,0.8,1.3-0.3c0.4-2.9,1.3-5.7,2.3-8.4c0.2-0.6,0.4-1.1,0.7-1.6c3.1,4.9,6.8,7.9,4.3,4c-2.2-3.6-2.1-7.4-1.2-10.6
					c2.5-4.7,5.6-8.9,9.2-12.6c1.8,3,4.1,5,2.7,2.7c-0.9-1.5-1.1-3-1-4.4c4.9-4.7,10.7-8.6,17.4-11.7c1-0.4,1.1-0.1,1.2,0.7
					c0.6,3.4,0.8,6.9,0.8,10.4c0,3.4-0.5,6.8-1.1,10.2c-3,10.8-10.2,23.2-26.4,31.8c-0.2,0.1-0.3,0.4-0.2,0.6
					c0.1,0.2,0.3,0.3,0.5,0.2c0,0,0.1,0,0.1,0c15.3-8.2,22.7-19.8,26.1-30.1c0.3-0.5,0.5-0.9,0.7-1.4c0.4-1.3,1.3-2,2.6-2.2
					c3-0.7,6-1.4,9.1-1.7c1.7-0.1,1.7-0.1,1.1,1.5c-1.1,2.9-2.4,5.6-3.9,8.2c-1.4,1.2-3.2,2.1-5.5,1.9c-2.7-0.3,0.1,1,3.6,1.2
					c-3.2,5.1-7.1,9.6-11.8,13.5c-1.7,0.5-3.6,0.6-5.5-0.1c-3.1-1.1-0.9,0.8,2.8,2.2c-1.8,1.3-3.6,2.6-5.5,3.7
					c-3.5,2.1-6.9,4.3-9.9,7.1c-0.8,0.7-1.6,1.3-2.5,1.9c1.5-0.4,2.8-1,4.1-1.7c0.9-0.5,1.4-0.4,2,0.6c2,3,3.5,6.1,4.5,9.4
					c-4.1-1.7-7.7-1.9-4.4-0.5c3.1,1.3,4.8,3.9,5.7,6.4c0,0.3,0.1,0.6,0.1,0.8c0.6,5.7,0.2,11-1.4,15.9c-2.4-2.8-5.4-4.4-3.5-2.4
					c2,2,2.1,4.7,1.8,6.8c-2,4.4-5,8.4-8.9,12.1c-1.5,1.4-1.6,1.4-2.5-0.5c-0.3-0.5-0.5-1-0.7-1.5c-4.1-8.7-4.8-17.7-2-26.9
					c0.3-0.8,0.7-1.1,1.5-1.1c1,0,2,0.2,3-0.2c-0.3-0.4-0.8-0.4-1.1-0.5c-5.1-1.1-10-2.8-14.4-5.8c-4.3-2.9-8-6.3-10.6-10.8
					c-1.8-3-4.1-5.7-7.4-7.3c-3.1-1.5-6.4-1.8-9.7-2.2c-3.3-0.4-6.5-0.1-10.2-0.1C114.4,50.3,116.5,50.1,118.4,49.5z"/>
			</defs>
			<clipPath id="SVGID_1_">
				<use xlink:href="#SVGID_5_"  style="overflow:visible;"/>
			</clipPath>
			
				<linearGradient id="SVGID_2_" gradientUnits="userSpaceOnUse" x1="4764.4805" y1="-560.5851" x2="4680.7358" y2="-590.8024" gradientTransform="matrix(-0.9716 0.2367 0.2367 0.9716 4843.3403 -564.2003)">
				<stop  offset="0" style="stop-color:#005784"/>
				<stop  offset="1" style="stop-color:#084267"/>
			</linearGradient>
			<path class="st3" d="M149.7,52.6c34.2-14.2,50.4-53.4,36.3-87.6c-14.2-34.2-53.4-50.4-87.6-36.3C64.2-57,47.9-17.8,62.1,16.3
				C76.3,50.5,115.5,66.8,149.7,52.6z"/>
			
				<linearGradient id="SVGID_3_" gradientUnits="userSpaceOnUse" x1="4677.9585" y1="-495.8937" x2="4691.6631" y2="-454.5523" gradientTransform="matrix(-0.9716 0.2367 0.2367 0.9716 4843.3403 -564.2003)">
				<stop  offset="0" style="stop-color:#005784"/>
				<stop  offset="3.339270e-02" style="stop-color:#005784"/>
				<stop  offset="1" style="stop-color:#084267"/>
			</linearGradient>
			<path class="st4" d="M174.9,55.2l5.2-1.3l14.9,61.2l-36.2,8.8l-1.1-4.7c13.3-17.7,16.7-40.1,10.8-60.2
				C168.3,58.2,174.9,55.2,174.9,55.2z"/>
		</g>
	</g>
	<path class="st1" d="M130,68.4c-3.8-0.2-5.5-1.3-5.5-3.3c0-1.9,1.9-2.9,5.4-2.9c2.6,0,4.9,0.6,6.9,2.2c-0.4-0.6-0.8-1.2-1.2-1.9
		c-1.7-2.8-3.4-4.6-5.5-5.6c-0.7-0.3-1.4-0.6-2.2-0.8c-5,0.5-10.6,3.1-10.6,9.2c0,6.7,6.7,8.8,12.3,9.2c4.2,0.2,5.9,1.1,5.9,3.1
		c0,2.2-2.6,3.6-5.3,3.6c-3.3-0.1-8.1-1.8-10.2-4.2l-3.6,5.2c4.3,4.5,9,5.3,13.7,5.3c8.5,0,12.8-4.5,12.8-9.7
		C142.7,70,135.6,68.8,130,68.4z"/>
	<g>
		<path class="st5" d="M77.8,91.9c0.9,0,1.9,0.2,2.5,0.6v0.7c-0.7-0.4-1.6-0.7-2.5-0.7c-1.2,0-2.2,0.4-2.2,1.5
			c0,2.4,5.3,1.4,5.3,4.5c0,1.6-1.5,2.3-3.1,2.2c-1.1,0-2.1-0.3-3-0.7v-0.7c0.9,0.5,1.9,0.8,2.9,0.8c1.3,0,2.4-0.4,2.4-1.5
			c0-2.6-5.3-1.5-5.3-4.6C74.9,92.6,76.3,91.9,77.8,91.9z"/>
		<path class="st5" d="M82.8,100.8c-0.3,0-0.5-0.2-0.5-0.5c0-0.3,0.2-0.5,0.5-0.5c0.3,0,0.5,0.2,0.5,0.5
			C83.3,100.6,83.1,100.8,82.8,100.8z"/>
		<path class="st5" d="M85.2,100.7l3.9-8.7h0.8l3.9,8.7H93l-1-2.3h-4.9l-1,2.3H85.2z M87.3,97.7h4.3l-2-4.6c0-0.1-0.1-0.2-0.1-0.3
			c0,0.1-0.1,0.2-0.1,0.3L87.3,97.7z"/>
		<path class="st5" d="M95.7,100.8c-0.3,0-0.5-0.2-0.5-0.5c0-0.3,0.2-0.5,0.5-0.5c0.3,0,0.5,0.2,0.5,0.5
			C96.2,100.6,96,100.8,95.7,100.8z"/>
		<path class="st5" d="M100.9,91.9c0.9,0,1.9,0.2,2.5,0.6v0.7c-0.7-0.4-1.6-0.7-2.5-0.7c-1.2,0-2.2,0.4-2.2,1.5
			c0,2.4,5.3,1.4,5.3,4.5c0,1.6-1.5,2.3-3.1,2.2c-1.1,0-2.1-0.3-3-0.7v-0.7c0.9,0.5,1.9,0.8,2.9,0.8c1.3,0,2.4-0.4,2.4-1.5
			c0-2.6-5.3-1.5-5.3-4.6C98,92.6,99.4,91.9,100.9,91.9z"/>
		<path class="st5" d="M105.9,100.8c-0.3,0-0.5-0.2-0.5-0.5c0-0.3,0.2-0.5,0.5-0.5c0.3,0,0.5,0.2,0.5,0.5
			C106.4,100.6,106.1,100.8,105.9,100.8z"/>
		<path class="st5" d="M110.7,97.4c-0.6,0-1.1-0.4-1.1-1.1c0-0.7,0.5-1.1,1.1-1.1c0.6,0,1.1,0.4,1.1,1.1
			C111.8,97.1,111.3,97.4,110.7,97.4z"/>
		<path class="st5" d="M122.2,92v0.7h-5V96h4.7v0.7h-4.7v3.3h5.1v0.7h-5.8V92H122.2z"/>
		<path class="st5" d="M124.2,100.8c-0.3,0-0.5-0.2-0.5-0.5c0-0.3,0.2-0.5,0.5-0.5c0.3,0,0.5,0.2,0.5,0.5
			C124.7,100.6,124.5,100.8,124.2,100.8z"/>
		<path class="st5" d="M129,91.9c0.9,0,1.9,0.2,2.5,0.6v0.7c-0.7-0.4-1.6-0.7-2.5-0.7c-1.2,0-2.2,0.4-2.2,1.5c0,2.4,5.3,1.4,5.3,4.5
			c0,1.6-1.5,2.3-3.1,2.2c-1.1,0-2.1-0.3-3-0.7v-0.7c0.9,0.5,1.9,0.8,2.9,0.8c1.3,0,2.4-0.4,2.4-1.5c0-2.6-5.3-1.5-5.3-4.6
			C126.2,92.6,127.6,91.9,129,91.9z"/>
		<path class="st5" d="M133.8,100.8c-0.3,0-0.5-0.2-0.5-0.5c0-0.3,0.2-0.5,0.5-0.5c0.3,0,0.5,0.2,0.5,0.5
			C134.3,100.6,134.1,100.8,133.8,100.8z"/>
		<path class="st5" d="M139,92c2,0,3.7,0.6,3.7,2.8c0,2.1-1.7,2.8-3.7,2.8h-2.1v3.2h-0.7V92H139z M139,92.7h-2.1v4.1h2.1
			c1.6,0,2.9-0.4,2.9-2.1C141.9,93.1,140.6,92.7,139,92.7z"/>
		<path class="st5" d="M139.5,100.8c-0.3,0-0.5-0.2-0.5-0.5c0-0.3,0.2-0.5,0.5-0.5c0.3,0,0.5,0.2,0.5,0.5
			C140,100.6,139.8,100.8,139.5,100.8z"/>
	</g>
</g>
</svg>
